<?xml version="1.0" encoding="utf-8" standalone="no"?>
<!DOCTYPE svg PUBLIC "-//W3C//DTD SVG 1.1//EN"
  "http://www.w3.org/Graphics/SVG/1.1/DTD/svg11.dtd">
<svg xmlns:xlink="http://www.w3.org/1999/xlink" width="460.8pt" height="345.6pt" viewBox="0 0 460.8 345.6" xmlns="http://www.w3.org/2000/svg" version="1.1">
 <metadata>
  <rdf:RDF xmlns:dc="http://purl.org/dc/elements/1.1/" xmlns:cc="http://creativecommons.org/ns#" xmlns:rdf="http://www.w3.org/1999/02/22-rdf-syntax-ns#">
   <cc:Work>
    <dc:type rdf:resource="http://purl.org/dc/dcmitype/StillImage"/>
    <dc:date>2024-05-27T16:26:25.387541</dc:date>
    <dc:format>image/svg+xml</dc:format>
    <dc:creator>
     <cc:Agent>
      <dc:title>Matplotlib v3.7.2, https://matplotlib.org/</dc:title>
     </cc:Agent>
    </dc:creator>
   </cc:Work>
  </rdf:RDF>
 </metadata>
 <defs>
  <style type="text/css">*{stroke-linejoin: round; stroke-linecap: butt}</style>
 </defs>
 <g id="figure_1">
  <g id="patch_1">
   <path d="M 0 345.6 
L 460.8 345.6 
L 460.8 0 
L 0 0 
z
" style="fill: #ffffff"/>
  </g>
  <g id="axes_1">
   <g id="patch_2">
    <path d="M 57.6 252.648 
L 414.72 252.648 
L 414.72 96.408 
L 57.6 96.408 
z
" style="fill: #ffffff"/>
   </g>
   <g id="matplotlib.axis_1">
    <g id="xtick_1">
     <g id="line2d_1">
      <path d="M 57.6 252.648 
L 57.6 96.408 
" clip-path="url(#p9c0bede93d)" style="fill: none; stroke: #b0b0b0; stroke-width: 0.8; stroke-linecap: square"/>
     </g>
     <g id="line2d_2">
      <defs>
       <path id="mfc10189996" d="M 0 0 
L 0 3.5 
" style="stroke: #000000; stroke-width: 0.8"/>
      </defs>
      <g>
       <use xlink:href="#mfc10189996" x="57.6" y="252.648" style="stroke: #000000; stroke-width: 0.8"/>
      </g>
     </g>
     <g id="text_1">
      <!-- −80 -->
      <g transform="translate(47.047656 267.246437) scale(0.1 -0.1)">
       <defs>
        <path id="DejaVuSans-2212" d="M 678 2272 
L 4684 2272 
L 4684 1741 
L 678 1741 
L 678 2272 
z
" transform="scale(0.015625)"/>
        <path id="DejaVuSans-38" d="M 2034 2216 
Q 1584 2216 1326 1975 
Q 1069 1734 1069 1313 
Q 1069 891 1326 650 
Q 1584 409 2034 409 
Q 2484 409 2743 651 
Q 3003 894 3003 1313 
Q 3003 1734 2745 1975 
Q 2488 2216 2034 2216 
z
M 1403 2484 
Q 997 2584 770 2862 
Q 544 3141 544 3541 
Q 544 4100 942 4425 
Q 1341 4750 2034 4750 
Q 2731 4750 3128 4425 
Q 3525 4100 3525 3541 
Q 3525 3141 3298 2862 
Q 3072 2584 2669 2484 
Q 3125 2378 3379 2068 
Q 3634 1759 3634 1313 
Q 3634 634 3220 271 
Q 2806 -91 2034 -91 
Q 1263 -91 848 271 
Q 434 634 434 1313 
Q 434 1759 690 2068 
Q 947 2378 1403 2484 
z
M 1172 3481 
Q 1172 3119 1398 2916 
Q 1625 2713 2034 2713 
Q 2441 2713 2670 2916 
Q 2900 3119 2900 3481 
Q 2900 3844 2670 4047 
Q 2441 4250 2034 4250 
Q 1625 4250 1398 4047 
Q 1172 3844 1172 3481 
z
" transform="scale(0.015625)"/>
        <path id="DejaVuSans-30" d="M 2034 4250 
Q 1547 4250 1301 3770 
Q 1056 3291 1056 2328 
Q 1056 1369 1301 889 
Q 1547 409 2034 409 
Q 2525 409 2770 889 
Q 3016 1369 3016 2328 
Q 3016 3291 2770 3770 
Q 2525 4250 2034 4250 
z
M 2034 4750 
Q 2819 4750 3233 4129 
Q 3647 3509 3647 2328 
Q 3647 1150 3233 529 
Q 2819 -91 2034 -91 
Q 1250 -91 836 529 
Q 422 1150 422 2328 
Q 422 3509 836 4129 
Q 1250 4750 2034 4750 
z
" transform="scale(0.015625)"/>
       </defs>
       <use xlink:href="#DejaVuSans-2212"/>
       <use xlink:href="#DejaVuSans-38" x="83.789062"/>
       <use xlink:href="#DejaVuSans-30" x="147.412109"/>
      </g>
     </g>
    </g>
    <g id="xtick_2">
     <g id="line2d_3">
      <path d="M 102.24 252.648 
L 102.24 96.408 
" clip-path="url(#p9c0bede93d)" style="fill: none; stroke: #b0b0b0; stroke-width: 0.8; stroke-linecap: square"/>
     </g>
     <g id="line2d_4">
      <g>
       <use xlink:href="#mfc10189996" x="102.24" y="252.648" style="stroke: #000000; stroke-width: 0.8"/>
      </g>
     </g>
     <g id="text_2">
      <!-- −60 -->
      <g transform="translate(91.687656 267.246437) scale(0.1 -0.1)">
       <defs>
        <path id="DejaVuSans-36" d="M 2113 2584 
Q 1688 2584 1439 2293 
Q 1191 2003 1191 1497 
Q 1191 994 1439 701 
Q 1688 409 2113 409 
Q 2538 409 2786 701 
Q 3034 994 3034 1497 
Q 3034 2003 2786 2293 
Q 2538 2584 2113 2584 
z
M 3366 4563 
L 3366 3988 
Q 3128 4100 2886 4159 
Q 2644 4219 2406 4219 
Q 1781 4219 1451 3797 
Q 1122 3375 1075 2522 
Q 1259 2794 1537 2939 
Q 1816 3084 2150 3084 
Q 2853 3084 3261 2657 
Q 3669 2231 3669 1497 
Q 3669 778 3244 343 
Q 2819 -91 2113 -91 
Q 1303 -91 875 529 
Q 447 1150 447 2328 
Q 447 3434 972 4092 
Q 1497 4750 2381 4750 
Q 2619 4750 2861 4703 
Q 3103 4656 3366 4563 
z
" transform="scale(0.015625)"/>
       </defs>
       <use xlink:href="#DejaVuSans-2212"/>
       <use xlink:href="#DejaVuSans-36" x="83.789062"/>
       <use xlink:href="#DejaVuSans-30" x="147.412109"/>
      </g>
     </g>
    </g>
    <g id="xtick_3">
     <g id="line2d_5">
      <path d="M 146.88 252.648 
L 146.88 96.408 
" clip-path="url(#p9c0bede93d)" style="fill: none; stroke: #b0b0b0; stroke-width: 0.8; stroke-linecap: square"/>
     </g>
     <g id="line2d_6">
      <g>
       <use xlink:href="#mfc10189996" x="146.88" y="252.648" style="stroke: #000000; stroke-width: 0.8"/>
      </g>
     </g>
     <g id="text_3">
      <!-- −40 -->
      <g transform="translate(136.327656 267.246437) scale(0.1 -0.1)">
       <defs>
        <path id="DejaVuSans-34" d="M 2419 4116 
L 825 1625 
L 2419 1625 
L 2419 4116 
z
M 2253 4666 
L 3047 4666 
L 3047 1625 
L 3713 1625 
L 3713 1100 
L 3047 1100 
L 3047 0 
L 2419 0 
L 2419 1100 
L 313 1100 
L 313 1709 
L 2253 4666 
z
" transform="scale(0.015625)"/>
       </defs>
       <use xlink:href="#DejaVuSans-2212"/>
       <use xlink:href="#DejaVuSans-34" x="83.789062"/>
       <use xlink:href="#DejaVuSans-30" x="147.412109"/>
      </g>
     </g>
    </g>
    <g id="xtick_4">
     <g id="line2d_7">
      <path d="M 191.52 252.648 
L 191.52 96.408 
" clip-path="url(#p9c0bede93d)" style="fill: none; stroke: #b0b0b0; stroke-width: 0.8; stroke-linecap: square"/>
     </g>
     <g id="line2d_8">
      <g>
       <use xlink:href="#mfc10189996" x="191.52" y="252.648" style="stroke: #000000; stroke-width: 0.8"/>
      </g>
     </g>
     <g id="text_4">
      <!-- −20 -->
      <g transform="translate(180.967656 267.246437) scale(0.1 -0.1)">
       <defs>
        <path id="DejaVuSans-32" d="M 1228 531 
L 3431 531 
L 3431 0 
L 469 0 
L 469 531 
Q 828 903 1448 1529 
Q 2069 2156 2228 2338 
Q 2531 2678 2651 2914 
Q 2772 3150 2772 3378 
Q 2772 3750 2511 3984 
Q 2250 4219 1831 4219 
Q 1534 4219 1204 4116 
Q 875 4013 500 3803 
L 500 4441 
Q 881 4594 1212 4672 
Q 1544 4750 1819 4750 
Q 2544 4750 2975 4387 
Q 3406 4025 3406 3419 
Q 3406 3131 3298 2873 
Q 3191 2616 2906 2266 
Q 2828 2175 2409 1742 
Q 1991 1309 1228 531 
z
" transform="scale(0.015625)"/>
       </defs>
       <use xlink:href="#DejaVuSans-2212"/>
       <use xlink:href="#DejaVuSans-32" x="83.789062"/>
       <use xlink:href="#DejaVuSans-30" x="147.412109"/>
      </g>
     </g>
    </g>
    <g id="xtick_5">
     <g id="line2d_9">
      <path d="M 236.16 252.648 
L 236.16 96.408 
" clip-path="url(#p9c0bede93d)" style="fill: none; stroke: #b0b0b0; stroke-width: 0.8; stroke-linecap: square"/>
     </g>
     <g id="line2d_10">
      <g>
       <use xlink:href="#mfc10189996" x="236.16" y="252.648" style="stroke: #000000; stroke-width: 0.8"/>
      </g>
     </g>
     <g id="text_5">
      <!-- 0 -->
      <g transform="translate(232.97875 267.246437) scale(0.1 -0.1)">
       <use xlink:href="#DejaVuSans-30"/>
      </g>
     </g>
    </g>
    <g id="xtick_6">
     <g id="line2d_11">
      <path d="M 280.8 252.648 
L 280.8 96.408 
" clip-path="url(#p9c0bede93d)" style="fill: none; stroke: #b0b0b0; stroke-width: 0.8; stroke-linecap: square"/>
     </g>
     <g id="line2d_12">
      <g>
       <use xlink:href="#mfc10189996" x="280.8" y="252.648" style="stroke: #000000; stroke-width: 0.8"/>
      </g>
     </g>
     <g id="text_6">
      <!-- 20 -->
      <g transform="translate(274.4375 267.246437) scale(0.1 -0.1)">
       <use xlink:href="#DejaVuSans-32"/>
       <use xlink:href="#DejaVuSans-30" x="63.623047"/>
      </g>
     </g>
    </g>
    <g id="xtick_7">
     <g id="line2d_13">
      <path d="M 325.44 252.648 
L 325.44 96.408 
" clip-path="url(#p9c0bede93d)" style="fill: none; stroke: #b0b0b0; stroke-width: 0.8; stroke-linecap: square"/>
     </g>
     <g id="line2d_14">
      <g>
       <use xlink:href="#mfc10189996" x="325.44" y="252.648" style="stroke: #000000; stroke-width: 0.8"/>
      </g>
     </g>
     <g id="text_7">
      <!-- 40 -->
      <g transform="translate(319.0775 267.246437) scale(0.1 -0.1)">
       <use xlink:href="#DejaVuSans-34"/>
       <use xlink:href="#DejaVuSans-30" x="63.623047"/>
      </g>
     </g>
    </g>
    <g id="xtick_8">
     <g id="line2d_15">
      <path d="M 370.08 252.648 
L 370.08 96.408 
" clip-path="url(#p9c0bede93d)" style="fill: none; stroke: #b0b0b0; stroke-width: 0.8; stroke-linecap: square"/>
     </g>
     <g id="line2d_16">
      <g>
       <use xlink:href="#mfc10189996" x="370.08" y="252.648" style="stroke: #000000; stroke-width: 0.8"/>
      </g>
     </g>
     <g id="text_8">
      <!-- 60 -->
      <g transform="translate(363.7175 267.246437) scale(0.1 -0.1)">
       <use xlink:href="#DejaVuSans-36"/>
       <use xlink:href="#DejaVuSans-30" x="63.623047"/>
      </g>
     </g>
    </g>
    <g id="xtick_9">
     <g id="line2d_17">
      <path d="M 414.72 252.648 
L 414.72 96.408 
" clip-path="url(#p9c0bede93d)" style="fill: none; stroke: #b0b0b0; stroke-width: 0.8; stroke-linecap: square"/>
     </g>
     <g id="line2d_18">
      <g>
       <use xlink:href="#mfc10189996" x="414.72" y="252.648" style="stroke: #000000; stroke-width: 0.8"/>
      </g>
     </g>
     <g id="text_9">
      <!-- 80 -->
      <g transform="translate(408.3575 267.246437) scale(0.1 -0.1)">
       <use xlink:href="#DejaVuSans-38"/>
       <use xlink:href="#DejaVuSans-30" x="63.623047"/>
      </g>
     </g>
    </g>
    <g id="text_10">
     <!-- r -->
     <g transform="translate(234.104531 280.924562) scale(0.1 -0.1)">
      <defs>
       <path id="DejaVuSans-72" d="M 2631 2963 
Q 2534 3019 2420 3045 
Q 2306 3072 2169 3072 
Q 1681 3072 1420 2755 
Q 1159 2438 1159 1844 
L 1159 0 
L 581 0 
L 581 3500 
L 1159 3500 
L 1159 2956 
Q 1341 3275 1631 3429 
Q 1922 3584 2338 3584 
Q 2397 3584 2469 3576 
Q 2541 3569 2628 3553 
L 2631 2963 
z
" transform="scale(0.015625)"/>
      </defs>
      <use xlink:href="#DejaVuSans-72"/>
     </g>
    </g>
   </g>
   <g id="matplotlib.axis_2">
    <g id="ytick_1">
     <g id="line2d_19">
      <path d="M 57.6 252.648 
L 414.72 252.648 
" clip-path="url(#p9c0bede93d)" style="fill: none; stroke: #b0b0b0; stroke-width: 0.8; stroke-linecap: square"/>
     </g>
     <g id="line2d_20">
      <defs>
       <path id="mdbda238a0e" d="M 0 0 
L -3.5 0 
" style="stroke: #000000; stroke-width: 0.8"/>
      </defs>
      <g>
       <use xlink:href="#mdbda238a0e" x="57.6" y="252.648" style="stroke: #000000; stroke-width: 0.8"/>
      </g>
     </g>
     <g id="text_11">
      <!-- 0 -->
      <g transform="translate(44.2375 256.447219) scale(0.1 -0.1)">
       <use xlink:href="#DejaVuSans-30"/>
      </g>
     </g>
    </g>
    <g id="ytick_2">
     <g id="line2d_21">
      <path d="M 57.6 230.328 
L 414.72 230.328 
" clip-path="url(#p9c0bede93d)" style="fill: none; stroke: #b0b0b0; stroke-width: 0.8; stroke-linecap: square"/>
     </g>
     <g id="line2d_22">
      <g>
       <use xlink:href="#mdbda238a0e" x="57.6" y="230.328" style="stroke: #000000; stroke-width: 0.8"/>
      </g>
     </g>
     <g id="text_12">
      <!-- 10 -->
      <g transform="translate(37.875 234.127219) scale(0.1 -0.1)">
       <defs>
        <path id="DejaVuSans-31" d="M 794 531 
L 1825 531 
L 1825 4091 
L 703 3866 
L 703 4441 
L 1819 4666 
L 2450 4666 
L 2450 531 
L 3481 531 
L 3481 0 
L 794 0 
L 794 531 
z
" transform="scale(0.015625)"/>
       </defs>
       <use xlink:href="#DejaVuSans-31"/>
       <use xlink:href="#DejaVuSans-30" x="63.623047"/>
      </g>
     </g>
    </g>
    <g id="ytick_3">
     <g id="line2d_23">
      <path d="M 57.6 208.008 
L 414.72 208.008 
" clip-path="url(#p9c0bede93d)" style="fill: none; stroke: #b0b0b0; stroke-width: 0.8; stroke-linecap: square"/>
     </g>
     <g id="line2d_24">
      <g>
       <use xlink:href="#mdbda238a0e" x="57.6" y="208.008" style="stroke: #000000; stroke-width: 0.8"/>
      </g>
     </g>
     <g id="text_13">
      <!-- 20 -->
      <g transform="translate(37.875 211.807219) scale(0.1 -0.1)">
       <use xlink:href="#DejaVuSans-32"/>
       <use xlink:href="#DejaVuSans-30" x="63.623047"/>
      </g>
     </g>
    </g>
    <g id="ytick_4">
     <g id="line2d_25">
      <path d="M 57.6 185.688 
L 414.72 185.688 
" clip-path="url(#p9c0bede93d)" style="fill: none; stroke: #b0b0b0; stroke-width: 0.8; stroke-linecap: square"/>
     </g>
     <g id="line2d_26">
      <g>
       <use xlink:href="#mdbda238a0e" x="57.6" y="185.688" style="stroke: #000000; stroke-width: 0.8"/>
      </g>
     </g>
     <g id="text_14">
      <!-- 30 -->
      <g transform="translate(37.875 189.487219) scale(0.1 -0.1)">
       <defs>
        <path id="DejaVuSans-33" d="M 2597 2516 
Q 3050 2419 3304 2112 
Q 3559 1806 3559 1356 
Q 3559 666 3084 287 
Q 2609 -91 1734 -91 
Q 1441 -91 1130 -33 
Q 819 25 488 141 
L 488 750 
Q 750 597 1062 519 
Q 1375 441 1716 441 
Q 2309 441 2620 675 
Q 2931 909 2931 1356 
Q 2931 1769 2642 2001 
Q 2353 2234 1838 2234 
L 1294 2234 
L 1294 2753 
L 1863 2753 
Q 2328 2753 2575 2939 
Q 2822 3125 2822 3475 
Q 2822 3834 2567 4026 
Q 2313 4219 1838 4219 
Q 1578 4219 1281 4162 
Q 984 4106 628 3988 
L 628 4550 
Q 988 4650 1302 4700 
Q 1616 4750 1894 4750 
Q 2613 4750 3031 4423 
Q 3450 4097 3450 3541 
Q 3450 3153 3228 2886 
Q 3006 2619 2597 2516 
z
" transform="scale(0.015625)"/>
       </defs>
       <use xlink:href="#DejaVuSans-33"/>
       <use xlink:href="#DejaVuSans-30" x="63.623047"/>
      </g>
     </g>
    </g>
    <g id="ytick_5">
     <g id="line2d_27">
      <path d="M 57.6 163.368 
L 414.72 163.368 
" clip-path="url(#p9c0bede93d)" style="fill: none; stroke: #b0b0b0; stroke-width: 0.8; stroke-linecap: square"/>
     </g>
     <g id="line2d_28">
      <g>
       <use xlink:href="#mdbda238a0e" x="57.6" y="163.368" style="stroke: #000000; stroke-width: 0.8"/>
      </g>
     </g>
     <g id="text_15">
      <!-- 40 -->
      <g transform="translate(37.875 167.167219) scale(0.1 -0.1)">
       <use xlink:href="#DejaVuSans-34"/>
       <use xlink:href="#DejaVuSans-30" x="63.623047"/>
      </g>
     </g>
    </g>
    <g id="ytick_6">
     <g id="line2d_29">
      <path d="M 57.6 141.048 
L 414.72 141.048 
" clip-path="url(#p9c0bede93d)" style="fill: none; stroke: #b0b0b0; stroke-width: 0.8; stroke-linecap: square"/>
     </g>
     <g id="line2d_30">
      <g>
       <use xlink:href="#mdbda238a0e" x="57.6" y="141.048" style="stroke: #000000; stroke-width: 0.8"/>
      </g>
     </g>
     <g id="text_16">
      <!-- 50 -->
      <g transform="translate(37.875 144.847219) scale(0.1 -0.1)">
       <defs>
        <path id="DejaVuSans-35" d="M 691 4666 
L 3169 4666 
L 3169 4134 
L 1269 4134 
L 1269 2991 
Q 1406 3038 1543 3061 
Q 1681 3084 1819 3084 
Q 2600 3084 3056 2656 
Q 3513 2228 3513 1497 
Q 3513 744 3044 326 
Q 2575 -91 1722 -91 
Q 1428 -91 1123 -41 
Q 819 9 494 109 
L 494 744 
Q 775 591 1075 516 
Q 1375 441 1709 441 
Q 2250 441 2565 725 
Q 2881 1009 2881 1497 
Q 2881 1984 2565 2268 
Q 2250 2553 1709 2553 
Q 1456 2553 1204 2497 
Q 953 2441 691 2322 
L 691 4666 
z
" transform="scale(0.015625)"/>
       </defs>
       <use xlink:href="#DejaVuSans-35"/>
       <use xlink:href="#DejaVuSans-30" x="63.623047"/>
      </g>
     </g>
    </g>
    <g id="ytick_7">
     <g id="line2d_31">
      <path d="M 57.6 118.728 
L 414.72 118.728 
" clip-path="url(#p9c0bede93d)" style="fill: none; stroke: #b0b0b0; stroke-width: 0.8; stroke-linecap: square"/>
     </g>
     <g id="line2d_32">
      <g>
       <use xlink:href="#mdbda238a0e" x="57.6" y="118.728" style="stroke: #000000; stroke-width: 0.8"/>
      </g>
     </g>
     <g id="text_17">
      <!-- 60 -->
      <g transform="translate(37.875 122.527219) scale(0.1 -0.1)">
       <use xlink:href="#DejaVuSans-36"/>
       <use xlink:href="#DejaVuSans-30" x="63.623047"/>
      </g>
     </g>
    </g>
    <g id="ytick_8">
     <g id="line2d_33">
      <path d="M 57.6 96.408 
L 414.72 96.408 
" clip-path="url(#p9c0bede93d)" style="fill: none; stroke: #b0b0b0; stroke-width: 0.8; stroke-linecap: square"/>
     </g>
     <g id="line2d_34">
      <g>
       <use xlink:href="#mdbda238a0e" x="57.6" y="96.408" style="stroke: #000000; stroke-width: 0.8"/>
      </g>
     </g>
     <g id="text_18">
      <!-- 70 -->
      <g transform="translate(37.875 100.207219) scale(0.1 -0.1)">
       <defs>
        <path id="DejaVuSans-37" d="M 525 4666 
L 3525 4666 
L 3525 4397 
L 1831 0 
L 1172 0 
L 2766 4134 
L 525 4134 
L 525 4666 
z
" transform="scale(0.015625)"/>
       </defs>
       <use xlink:href="#DejaVuSans-37"/>
       <use xlink:href="#DejaVuSans-30" x="63.623047"/>
      </g>
     </g>
    </g>
    <g id="text_19">
     <!-- Intensity -->
     <g transform="translate(31.795312 196.2905) rotate(-90) scale(0.1 -0.1)">
      <defs>
       <path id="DejaVuSans-49" d="M 628 4666 
L 1259 4666 
L 1259 0 
L 628 0 
L 628 4666 
z
" transform="scale(0.015625)"/>
       <path id="DejaVuSans-6e" d="M 3513 2113 
L 3513 0 
L 2938 0 
L 2938 2094 
Q 2938 2591 2744 2837 
Q 2550 3084 2163 3084 
Q 1697 3084 1428 2787 
Q 1159 2491 1159 1978 
L 1159 0 
L 581 0 
L 581 3500 
L 1159 3500 
L 1159 2956 
Q 1366 3272 1645 3428 
Q 1925 3584 2291 3584 
Q 2894 3584 3203 3211 
Q 3513 2838 3513 2113 
z
" transform="scale(0.015625)"/>
       <path id="DejaVuSans-74" d="M 1172 4494 
L 1172 3500 
L 2356 3500 
L 2356 3053 
L 1172 3053 
L 1172 1153 
Q 1172 725 1289 603 
Q 1406 481 1766 481 
L 2356 481 
L 2356 0 
L 1766 0 
Q 1100 0 847 248 
Q 594 497 594 1153 
L 594 3053 
L 172 3053 
L 172 3500 
L 594 3500 
L 594 4494 
L 1172 4494 
z
" transform="scale(0.015625)"/>
       <path id="DejaVuSans-65" d="M 3597 1894 
L 3597 1613 
L 953 1613 
Q 991 1019 1311 708 
Q 1631 397 2203 397 
Q 2534 397 2845 478 
Q 3156 559 3463 722 
L 3463 178 
Q 3153 47 2828 -22 
Q 2503 -91 2169 -91 
Q 1331 -91 842 396 
Q 353 884 353 1716 
Q 353 2575 817 3079 
Q 1281 3584 2069 3584 
Q 2775 3584 3186 3129 
Q 3597 2675 3597 1894 
z
M 3022 2063 
Q 3016 2534 2758 2815 
Q 2500 3097 2075 3097 
Q 1594 3097 1305 2825 
Q 1016 2553 972 2059 
L 3022 2063 
z
" transform="scale(0.015625)"/>
       <path id="DejaVuSans-73" d="M 2834 3397 
L 2834 2853 
Q 2591 2978 2328 3040 
Q 2066 3103 1784 3103 
Q 1356 3103 1142 2972 
Q 928 2841 928 2578 
Q 928 2378 1081 2264 
Q 1234 2150 1697 2047 
L 1894 2003 
Q 2506 1872 2764 1633 
Q 3022 1394 3022 966 
Q 3022 478 2636 193 
Q 2250 -91 1575 -91 
Q 1294 -91 989 -36 
Q 684 19 347 128 
L 347 722 
Q 666 556 975 473 
Q 1284 391 1588 391 
Q 1994 391 2212 530 
Q 2431 669 2431 922 
Q 2431 1156 2273 1281 
Q 2116 1406 1581 1522 
L 1381 1569 
Q 847 1681 609 1914 
Q 372 2147 372 2553 
Q 372 3047 722 3315 
Q 1072 3584 1716 3584 
Q 2034 3584 2315 3537 
Q 2597 3491 2834 3397 
z
" transform="scale(0.015625)"/>
       <path id="DejaVuSans-69" d="M 603 3500 
L 1178 3500 
L 1178 0 
L 603 0 
L 603 3500 
z
M 603 4863 
L 1178 4863 
L 1178 4134 
L 603 4134 
L 603 4863 
z
" transform="scale(0.015625)"/>
       <path id="DejaVuSans-79" d="M 2059 -325 
Q 1816 -950 1584 -1140 
Q 1353 -1331 966 -1331 
L 506 -1331 
L 506 -850 
L 844 -850 
Q 1081 -850 1212 -737 
Q 1344 -625 1503 -206 
L 1606 56 
L 191 3500 
L 800 3500 
L 1894 763 
L 2988 3500 
L 3597 3500 
L 2059 -325 
z
" transform="scale(0.015625)"/>
      </defs>
      <use xlink:href="#DejaVuSans-49"/>
      <use xlink:href="#DejaVuSans-6e" x="29.492188"/>
      <use xlink:href="#DejaVuSans-74" x="92.871094"/>
      <use xlink:href="#DejaVuSans-65" x="132.080078"/>
      <use xlink:href="#DejaVuSans-6e" x="193.603516"/>
      <use xlink:href="#DejaVuSans-73" x="256.982422"/>
      <use xlink:href="#DejaVuSans-69" x="309.082031"/>
      <use xlink:href="#DejaVuSans-74" x="336.865234"/>
      <use xlink:href="#DejaVuSans-79" x="376.074219"/>
     </g>
    </g>
   </g>
   <g id="line2d_35">
    <path d="M 236.16 252.648 
L 236.16 252.648 
L 236.16 252.648 
L 236.16 252.648 
L 236.16 252.648 
L 236.16 252.648 
L 236.16 252.648 
L 236.16 252.648 
L 236.16 252.648 
L 236.16 252.648 
L 236.16 252.648 
L 236.16 252.648 
L 236.16 252.648 
L 236.16 252.648 
L 236.16 252.648 
L 236.16 252.648 
L 236.16 252.648 
L 236.16 252.648 
L 236.16 252.648 
L 236.16 252.648 
L 236.16 252.648 
L 236.16 252.648 
L 236.16 252.648 
L 236.16 252.648 
L 236.16 252.648 
L 236.16 252.648 
L 236.16 252.648 
L 236.16 252.648 
L 236.16 252.648 
L 236.16 252.648 
L 236.16 252.648 
L 236.16 252.648 
L 236.16 252.648 
L 236.16 252.648 
L 236.16 252.648 
L 236.16 252.648 
L 236.16 252.648 
L 236.16 252.648 
L 236.16 252.648 
L 236.16 252.648 
L 236.16 252.648 
L 236.16 252.648 
L 236.16 252.648 
L 236.16 252.648 
L 236.16 252.648 
L 236.16 252.648 
L 236.16 252.648 
L 236.16 252.648 
L 236.16 252.648 
L 236.16 252.648 
L 236.16 252.648 
L 236.16 252.648 
L 236.16 252.648 
L 236.16 252.648 
L 236.16 252.648 
L 236.16 252.648 
L 236.16 252.648 
L 236.16 252.648 
L 236.16 252.648 
L 236.16 252.648 
L 236.16 252.648 
L 236.16 252.648 
L 236.16 252.648 
L 236.16 252.648 
L 236.16 252.648 
L 236.16 252.648 
L 236.16 252.648 
L 236.16 252.648 
L 236.16 252.648 
L 236.16 252.648 
L 236.16 252.648 
L 236.16 252.648 
L 236.16 252.648 
L 236.16 252.648 
L 236.16 252.648 
L 236.16 252.648 
L 236.16 252.648 
L 236.16 252.648 
L 236.16 252.648 
L 236.16 252.648 
L 236.16 252.648 
L 236.16 252.648 
L 236.16 252.648 
L 236.16 252.648 
L 236.16 252.648 
L 236.16 252.648 
L 236.16 252.648 
L 236.16 252.648 
L 236.16 252.648 
L 236.16 252.648 
L 236.16 252.648 
L 236.16 252.648 
L 236.16 252.648 
L 236.16 252.648 
L 236.16 252.648 
L 236.16 252.648 
L 236.16 252.648 
L 236.16 252.648 
L 236.16 252.648 
L 236.16 252.648 
" clip-path="url(#p9c0bede93d)" style="fill: none; stroke: #c4323e; stroke-width: 2; stroke-linecap: square"/>
   </g>
   <g id="line2d_36">
    <path d="M 247.32 252.648 
L 247.297531 252.081751 
L 247.230216 251.517783 
L 247.118324 250.958365 
L 246.962308 250.405751 
L 246.762794 249.862165 
L 246.520586 249.329798 
L 246.23666 248.810791 
L 245.912159 248.307236 
L 245.548389 247.821159 
L 245.146816 247.354518 
L 244.709056 246.909192 
L 244.236872 246.486975 
L 243.732165 246.089565 
L 243.196968 245.718564 
L 242.633435 245.375466 
L 242.043836 245.061651 
L 241.430545 244.778384 
L 240.796032 244.526806 
L 240.14285 244.307928 
L 239.473631 244.122633 
L 238.79107 243.971666 
L 238.097914 243.855636 
L 237.396954 243.77501 
L 236.691014 243.730112 
L 235.982936 243.721124 
L 235.27557 243.748081 
L 234.571766 243.810874 
L 233.874358 243.909252 
L 233.186152 244.042817 
L 232.509922 244.211033 
L 231.848388 244.413221 
L 231.204217 244.648568 
L 230.58 244.916125 
L 229.978252 245.214816 
L 229.401396 245.543438 
L 228.851754 245.900668 
L 228.33154 246.285066 
L 227.842849 246.695086 
L 227.387647 247.129077 
L 226.967769 247.58529 
L 226.584905 248.061888 
L 226.240596 248.556954 
L 225.93623 249.068492 
L 225.67303 249.594444 
L 225.452058 250.132692 
L 225.274204 250.681068 
L 225.140182 251.237364 
L 225.050533 251.79934 
L 225.005619 252.364733 
L 225.005619 252.931267 
L 225.050533 253.49666 
L 225.140182 254.058636 
L 225.274204 254.614932 
L 225.452058 255.163308 
L 225.67303 255.701556 
L 225.93623 256.227508 
L 226.240596 256.739046 
L 226.584905 257.234112 
L 226.967769 257.71071 
L 227.387647 258.166923 
L 227.842849 258.600914 
L 228.33154 259.010934 
L 228.851754 259.395332 
L 229.401396 259.752562 
L 229.978252 260.081184 
L 230.58 260.379875 
L 231.204217 260.647432 
L 231.848388 260.882779 
L 232.509922 261.084967 
L 233.186152 261.253183 
L 233.874358 261.386748 
L 234.571766 261.485126 
L 235.27557 261.547919 
L 235.982936 261.574876 
L 236.691014 261.565888 
L 237.396954 261.52099 
L 238.097914 261.440364 
L 238.79107 261.324334 
L 239.473631 261.173367 
L 240.14285 260.988072 
L 240.796032 260.769194 
L 241.430545 260.517616 
L 242.043836 260.234349 
L 242.633435 259.920534 
L 243.196968 259.577436 
L 243.732165 259.206435 
L 244.236872 258.809025 
L 244.709056 258.386808 
L 245.146816 257.941482 
L 245.548389 257.474841 
L 245.912159 256.988764 
L 246.23666 256.485209 
L 246.520586 255.966202 
L 246.762794 255.433835 
L 246.962308 254.890249 
L 247.118324 254.337635 
L 247.230216 253.778217 
L 247.297531 253.214249 
L 247.32 252.648 
" clip-path="url(#p9c0bede93d)" style="fill: none; stroke: #e47b2b; stroke-width: 2; stroke-linecap: square"/>
   </g>
   <g id="line2d_37">
    <path d="M 258.48 252.648 
L 258.435063 251.515502 
L 258.300431 250.387565 
L 258.076649 249.26873 
L 257.764615 248.163502 
L 257.365587 247.076331 
L 256.881172 246.011595 
L 256.31332 244.973582 
L 255.664318 243.966471 
L 254.936779 242.994318 
L 254.133632 242.061036 
L 253.258112 241.170384 
L 252.313744 240.325949 
L 251.30433 239.53113 
L 250.233936 238.789129 
L 249.10687 238.102932 
L 247.927672 237.475303 
L 246.70109 236.908769 
L 245.432063 236.405611 
L 244.1257 235.967856 
L 242.787263 235.597266 
L 241.422139 235.295333 
L 240.035827 235.063273 
L 238.633909 234.90202 
L 237.222028 234.812225 
L 235.805872 234.794248 
L 234.391141 234.848161 
L 232.983533 234.973748 
L 231.588715 235.170504 
L 230.212304 235.437634 
L 228.859843 235.774065 
L 227.536777 236.178442 
L 226.248433 236.649135 
L 225 237.18425 
L 223.796504 237.781633 
L 222.642792 238.438877 
L 221.543508 239.153336 
L 220.503081 239.922133 
L 219.525697 240.742173 
L 218.615295 241.610153 
L 217.775539 242.522579 
L 217.00981 243.475776 
L 216.321193 244.465907 
L 215.712459 245.488984 
L 215.186061 246.540888 
L 214.744117 247.617383 
L 214.388407 248.714135 
L 214.120364 249.826727 
L 213.941067 250.950679 
L 213.851237 252.081466 
L 213.851237 253.214534 
L 213.941067 254.345321 
L 214.120364 255.469273 
L 214.388407 256.581865 
L 214.744117 257.678617 
L 215.186061 258.755112 
L 215.712459 259.807016 
L 216.321193 260.830093 
L 217.00981 261.820224 
L 217.775539 262.773421 
L 218.615295 263.685847 
L 219.525697 264.553827 
L 220.503081 265.373867 
L 221.543508 266.142664 
L 222.642792 266.857123 
L 223.796504 267.514367 
L 225 268.11175 
L 226.248433 268.646865 
L 227.536777 269.117558 
L 228.859843 269.521935 
L 230.212304 269.858366 
L 231.588715 270.125496 
L 232.983533 270.322252 
L 234.391141 270.447839 
L 235.805872 270.501752 
L 237.222028 270.483775 
L 238.633909 270.39398 
L 240.035827 270.232727 
L 241.422139 270.000667 
L 242.787263 269.698734 
L 244.1257 269.328144 
L 245.432063 268.890389 
L 246.70109 268.387231 
L 247.927672 267.820697 
L 249.10687 267.193068 
L 250.233936 266.506871 
L 251.30433 265.76487 
L 252.313744 264.970051 
L 253.258112 264.125616 
L 254.133632 263.234964 
L 254.936779 262.301682 
L 255.664318 261.329529 
L 256.31332 260.322418 
L 256.881172 259.284405 
L 257.365587 258.219669 
L 257.764615 257.132498 
L 258.076649 256.02727 
L 258.300431 254.908435 
L 258.435063 253.780498 
L 258.48 252.648 
" clip-path="url(#p9c0bede93d)" style="fill: none; stroke: #387573; stroke-width: 2; stroke-linecap: square"/>
   </g>
   <g id="line2d_38">
    <path d="M 269.64 252.648 
L 269.572594 250.949254 
L 269.370647 249.257348 
L 269.034973 247.579095 
L 268.566923 245.921252 
L 267.968381 244.290496 
L 267.241758 242.693393 
L 266.389981 241.136373 
L 265.416477 239.625707 
L 264.325168 238.167476 
L 263.120448 236.767554 
L 261.807168 235.431577 
L 260.390616 234.164924 
L 258.876495 232.972696 
L 257.270903 231.859693 
L 255.580305 230.830398 
L 253.811509 229.888954 
L 251.971636 229.039153 
L 250.068095 228.284417 
L 248.108551 227.627784 
L 246.100894 227.071898 
L 244.053209 226.618999 
L 241.973741 226.270909 
L 239.870863 226.029031 
L 237.753043 225.894337 
L 235.628808 225.867371 
L 233.506711 225.948242 
L 231.395299 226.136623 
L 229.303073 226.431755 
L 227.238457 226.832452 
L 225.209765 227.337098 
L 223.225165 227.943663 
L 221.29265 228.649703 
L 219.42 229.452376 
L 217.614756 230.348449 
L 215.884188 231.334315 
L 214.235263 232.406003 
L 212.674621 233.559199 
L 211.208546 234.789259 
L 209.842942 236.09123 
L 208.583308 237.459869 
L 207.434715 238.889665 
L 206.401789 240.374861 
L 205.488689 241.909477 
L 204.699091 243.487332 
L 204.036175 245.102075 
L 203.502611 246.747203 
L 203.100546 248.416091 
L 202.8316 250.102019 
L 202.696856 251.798199 
L 202.696856 253.497801 
L 202.8316 255.193981 
L 203.100546 256.879909 
L 203.502611 258.548797 
L 204.036175 260.193925 
L 204.699091 261.808668 
L 205.488689 263.386523 
L 206.401789 264.921139 
L 207.434715 266.406335 
L 208.583308 267.836131 
L 209.842942 269.20477 
L 211.208546 270.506741 
L 212.674621 271.736801 
L 214.235263 272.889997 
L 215.884188 273.961685 
L 217.614756 274.947551 
L 219.42 275.843624 
L 221.29265 276.646297 
L 223.225165 277.352337 
L 225.209765 277.958902 
L 227.238457 278.463548 
L 229.303073 278.864245 
L 231.395299 279.159377 
L 233.506711 279.347758 
L 235.628808 279.428629 
L 237.753043 279.401663 
L 239.870863 279.266969 
L 241.973741 279.025091 
L 244.053209 278.677001 
L 246.100894 278.224102 
L 248.108551 277.668216 
L 250.068095 277.011583 
L 251.971636 276.256847 
L 253.811509 275.407046 
L 255.580305 274.465602 
L 257.270903 273.436307 
L 258.876495 272.323304 
L 260.390616 271.131076 
L 261.807168 269.864423 
L 263.120448 268.528446 
L 264.325168 267.128524 
L 265.416477 265.670293 
L 266.389981 264.159627 
L 267.241758 262.602607 
L 267.968381 261.005504 
L 268.566923 259.374748 
L 269.034973 257.716905 
L 269.370647 256.038652 
L 269.572594 254.346746 
L 269.64 252.648 
" clip-path="url(#p9c0bede93d)" style="fill: none; stroke: #37ba2a; stroke-width: 2; stroke-linecap: square"/>
   </g>
   <g id="line2d_39">
    <path d="M 280.8 252.648 
L 280.710125 250.383005 
L 280.440863 248.12713 
L 279.993297 245.88946 
L 279.36923 243.679003 
L 278.571175 241.504662 
L 277.602345 239.37519 
L 276.466641 237.299164 
L 275.168636 235.284942 
L 273.713558 233.340635 
L 272.107264 231.474072 
L 270.356224 229.692769 
L 268.467487 228.003898 
L 266.44866 226.414261 
L 264.307871 224.930257 
L 262.05374 223.557864 
L 259.695345 222.302605 
L 257.242181 221.169537 
L 254.704126 220.163222 
L 252.091401 219.287712 
L 249.414526 218.546531 
L 246.684279 217.942665 
L 243.911655 217.478546 
L 241.107817 217.156041 
L 238.284057 216.97645 
L 235.451743 216.940495 
L 232.622282 217.048322 
L 229.807066 217.299497 
L 227.01743 217.693007 
L 224.264609 218.227269 
L 221.559686 218.900131 
L 218.913554 219.708883 
L 216.336866 220.65027 
L 213.84 221.720501 
L 211.433008 222.915265 
L 209.125584 224.229753 
L 206.927017 225.658671 
L 204.846161 227.196266 
L 202.891395 228.836345 
L 201.07059 230.572306 
L 199.391077 232.397158 
L 197.85962 234.303553 
L 196.482386 236.283814 
L 195.264918 238.329969 
L 194.212121 240.433777 
L 193.328234 242.586767 
L 192.616814 244.78027 
L 192.080728 247.005454 
L 191.722133 249.253359 
L 191.542474 251.514932 
L 191.542474 253.781068 
L 191.722133 256.042641 
L 192.080728 258.290546 
L 192.616814 260.51573 
L 193.328234 262.709233 
L 194.212121 264.862223 
L 195.264918 266.966031 
L 196.482386 269.012186 
L 197.85962 270.992447 
L 199.391077 272.898842 
L 201.07059 274.723694 
L 202.891395 276.459655 
L 204.846161 278.099734 
L 206.927017 279.637329 
L 209.125584 281.066247 
L 211.433008 282.380735 
L 213.84 283.575499 
L 216.336866 284.64573 
L 218.913554 285.587117 
L 221.559686 286.395869 
L 224.264609 287.068731 
L 227.01743 287.602993 
L 229.807066 287.996503 
L 232.622282 288.247678 
L 235.451743 288.355505 
L 238.284057 288.31955 
L 241.107817 288.139959 
L 243.911655 287.817454 
L 246.684279 287.353335 
L 249.414526 286.749469 
L 252.091401 286.008288 
L 254.704126 285.132778 
L 257.242181 284.126463 
L 259.695345 282.993395 
L 262.05374 281.738136 
L 264.307871 280.365743 
L 266.44866 278.881739 
L 268.467487 277.292102 
L 270.356224 275.603231 
L 272.107264 273.821928 
L 273.713558 271.955365 
L 275.168636 270.011058 
L 276.466641 267.996836 
L 277.602345 265.92081 
L 278.571175 263.791338 
L 279.36923 261.616997 
L 279.993297 259.40654 
L 280.440863 257.16887 
L 280.710125 254.912995 
L 280.8 252.648 
" clip-path="url(#p9c0bede93d)" style="fill: none; stroke: #6a8756; stroke-width: 2; stroke-linecap: square"/>
   </g>
   <g id="line2d_40">
    <path d="M 291.96 252.648 
L 291.847657 249.816756 
L 291.511079 246.996913 
L 290.951621 244.199824 
L 290.171538 241.436754 
L 289.173968 238.718827 
L 287.962931 236.056988 
L 286.543301 233.461955 
L 284.920795 230.944178 
L 283.101947 228.513794 
L 281.09408 226.18059 
L 278.90528 223.953961 
L 276.544359 221.842873 
L 274.020825 219.855826 
L 271.344839 218.000822 
L 268.527176 216.28533 
L 265.579181 214.716257 
L 262.512726 213.299922 
L 259.340158 212.042028 
L 256.074251 210.94764 
L 252.728157 210.021164 
L 249.315349 209.266332 
L 245.849568 208.686182 
L 242.344772 208.283051 
L 238.815071 208.058562 
L 235.274679 208.013619 
L 231.737852 208.148403 
L 228.218832 208.462371 
L 224.731788 208.954259 
L 221.290761 209.622086 
L 217.909608 210.463163 
L 214.601942 211.474104 
L 211.381083 212.650838 
L 208.26 213.988626 
L 205.25126 215.482082 
L 202.366979 217.125191 
L 199.618771 218.911339 
L 197.017701 220.833332 
L 194.574244 222.883432 
L 192.298237 225.053383 
L 190.198847 227.334448 
L 188.284526 229.717441 
L 186.562982 232.192768 
L 185.041148 234.750461 
L 183.725152 237.380221 
L 182.620292 240.071459 
L 181.731018 242.813338 
L 181.06091 245.594818 
L 180.612667 248.404698 
L 180.388093 251.231665 
L 180.388093 254.064335 
L 180.612667 256.891302 
L 181.06091 259.701182 
L 181.731018 262.482662 
L 182.620292 265.224541 
L 183.725152 267.915779 
L 185.041148 270.545539 
L 186.562982 273.103232 
L 188.284526 275.578559 
L 190.198847 277.961552 
L 192.298237 280.242617 
L 194.574244 282.412568 
L 197.017701 284.462668 
L 199.618771 286.384661 
L 202.366979 288.170809 
L 205.25126 289.813918 
L 208.26 291.307374 
L 211.381083 292.645162 
L 214.601942 293.821896 
L 217.909608 294.832837 
L 221.290761 295.673914 
L 224.731788 296.341741 
L 228.218832 296.833629 
L 231.737852 297.147597 
L 235.274679 297.282381 
L 238.815071 297.237438 
L 242.344772 297.012949 
L 245.849568 296.609818 
L 249.315349 296.029668 
L 252.728157 295.274836 
L 256.074251 294.34836 
L 259.340158 293.253972 
L 262.512726 291.996078 
L 265.579181 290.579743 
L 268.527176 289.01067 
L 271.344839 287.295178 
L 274.020825 285.440174 
L 276.544359 283.453127 
L 278.90528 281.342039 
L 281.09408 279.11541 
L 283.101947 276.782206 
L 284.920795 274.351822 
L 286.543301 271.834045 
L 287.962931 269.239012 
L 289.173968 266.577173 
L 290.171538 263.859246 
L 290.951621 261.096176 
L 291.511079 258.299087 
L 291.847657 255.479244 
L 291.96 252.648 
" clip-path="url(#p9c0bede93d)" style="fill: none; stroke: #db7548; stroke-width: 2; stroke-linecap: square"/>
   </g>
   <g id="line2d_41">
    <path d="M 303.12 252.648 
L 302.985188 249.250507 
L 302.581294 245.866695 
L 301.909946 242.510189 
L 300.973845 239.194505 
L 299.776762 235.932992 
L 298.323517 232.738786 
L 296.619961 229.624746 
L 294.672954 226.603413 
L 292.490337 223.686953 
L 290.080896 220.887108 
L 287.454336 218.215153 
L 284.621231 215.681848 
L 281.59299 213.297391 
L 278.381807 211.071386 
L 275.000611 209.012795 
L 271.463017 207.129908 
L 267.783271 205.430306 
L 263.976189 203.920833 
L 260.057101 202.607567 
L 256.041788 201.495797 
L 251.946418 200.589998 
L 247.787482 199.893818 
L 243.581726 199.410061 
L 239.346085 199.140674 
L 235.097615 199.086743 
L 230.853423 199.248483 
L 226.630598 199.625245 
L 222.446146 200.215511 
L 218.316913 201.016903 
L 214.259529 202.026196 
L 210.29033 203.239325 
L 206.4253 204.651405 
L 202.68 206.256751 
L 199.069513 208.048898 
L 195.608375 210.02063 
L 192.310525 212.164007 
L 189.189242 214.470399 
L 186.257092 216.930518 
L 183.525885 219.534459 
L 181.006616 222.271737 
L 178.709431 225.131329 
L 176.643578 228.101722 
L 174.817378 231.170953 
L 173.238182 234.326665 
L 171.91235 237.55615 
L 170.845221 240.846405 
L 170.041092 244.184181 
L 169.5032 247.556038 
L 169.233712 250.948398 
L 169.233712 254.347602 
L 169.5032 257.739962 
L 170.041092 261.111819 
L 170.845221 264.449595 
L 171.91235 267.73985 
L 173.238182 270.969335 
L 174.817378 274.125047 
L 176.643578 277.194278 
L 178.709431 280.164671 
L 181.006616 283.024263 
L 183.525885 285.761541 
L 186.257092 288.365482 
L 189.189242 290.825601 
L 192.310525 293.131993 
L 195.608375 295.27537 
L 199.069513 297.247102 
L 202.68 299.039249 
L 206.4253 300.644595 
L 210.29033 302.056675 
L 214.259529 303.269804 
L 218.316913 304.279097 
L 222.446146 305.080489 
L 226.630598 305.670755 
L 230.853423 306.047517 
L 235.097615 306.209257 
L 239.346085 306.155326 
L 243.581726 305.885939 
L 247.787482 305.402182 
L 251.946418 304.706002 
L 256.041788 303.800203 
L 260.057101 302.688433 
L 263.976189 301.375167 
L 267.783271 299.865694 
L 271.463017 298.166092 
L 275.000611 296.283205 
L 278.381807 294.224614 
L 281.59299 291.998609 
L 284.621231 289.614152 
L 287.454336 287.080847 
L 290.080896 284.408892 
L 292.490337 281.609047 
L 294.672954 278.692587 
L 296.619961 275.671254 
L 298.323517 272.557214 
L 299.776762 269.363008 
L 300.973845 266.101495 
L 301.909946 262.785811 
L 302.581294 259.429305 
L 302.985188 256.045493 
L 303.12 252.648 
" clip-path="url(#p9c0bede93d)" style="fill: none; stroke: #3bfd02; stroke-width: 2; stroke-linecap: square"/>
   </g>
   <g id="line2d_42">
    <path d="M 314.28 252.648 
L 314.122719 248.684259 
L 313.65151 244.736478 
L 312.86827 240.820554 
L 311.776153 236.952255 
L 310.379556 233.147158 
L 308.684103 229.420583 
L 306.696621 225.787537 
L 304.425113 222.262649 
L 301.878726 218.860111 
L 299.067713 215.593626 
L 296.003392 212.476346 
L 292.698103 209.520822 
L 289.165155 206.738957 
L 285.418774 204.141951 
L 281.474046 201.740261 
L 277.346854 199.54356 
L 273.053816 197.560691 
L 268.612221 195.799639 
L 264.039952 194.267495 
L 259.35542 192.97043 
L 254.577488 191.913664 
L 249.725396 191.101455 
L 244.81868 190.537071 
L 239.877099 190.222787 
L 234.920551 190.159867 
L 229.968993 190.348564 
L 225.042365 190.788119 
L 220.160503 191.476762 
L 215.343066 192.41172 
L 210.609451 193.589229 
L 205.978719 195.004546 
L 201.469516 196.651973 
L 197.1 198.524876 
L 192.887765 200.615714 
L 188.849771 202.916068 
L 185.002279 205.416675 
L 181.360782 208.107465 
L 177.939941 210.977605 
L 174.753532 214.015536 
L 171.814385 217.209027 
L 169.134336 220.545218 
L 166.724175 224.010675 
L 164.593607 227.591445 
L 162.751212 231.273109 
L 161.204409 235.040842 
L 159.959425 238.879473 
L 159.021274 242.773545 
L 158.393733 246.707378 
L 158.07933 250.665131 
L 158.07933 254.630869 
L 158.393733 258.588622 
L 159.021274 262.522455 
L 159.959425 266.416527 
L 161.204409 270.255158 
L 162.751212 274.022891 
L 164.593607 277.704555 
L 166.724175 281.285325 
L 169.134336 284.750782 
L 171.814385 288.086973 
L 174.753532 291.280464 
L 177.939941 294.318395 
L 181.360782 297.188535 
L 185.002279 299.879325 
L 188.849771 302.379932 
L 192.887765 304.680286 
L 197.1 306.771124 
L 201.469516 308.644027 
L 205.978719 310.291454 
L 210.609451 311.706771 
L 215.343066 312.88428 
L 220.160503 313.819238 
L 225.042365 314.507881 
L 229.968993 314.947436 
L 234.920551 315.136133 
L 239.877099 315.073213 
L 244.81868 314.758929 
L 249.725396 314.194545 
L 254.577488 313.382336 
L 259.35542 312.32557 
L 264.039952 311.028505 
L 268.612221 309.496361 
L 273.053816 307.735309 
L 277.346854 305.75244 
L 281.474046 303.555739 
L 285.418774 301.154049 
L 289.165155 298.557043 
L 292.698103 295.775178 
L 296.003392 292.819654 
L 299.067713 289.702374 
L 301.878726 286.435889 
L 304.425113 283.033351 
L 306.696621 279.508463 
L 308.684103 275.875417 
L 310.379556 272.148842 
L 311.776153 268.343745 
L 312.86827 264.475446 
L 313.65151 260.559522 
L 314.122719 256.611741 
L 314.28 252.648 
" clip-path="url(#p9c0bede93d)" style="fill: none; stroke: #cab99a; stroke-width: 2; stroke-linecap: square"/>
   </g>
   <g id="line2d_43">
    <path d="M 325.44 252.648 
L 325.26025 248.11801 
L 324.721726 243.606261 
L 323.826594 239.130919 
L 322.57846 234.710006 
L 320.982349 230.361323 
L 319.044689 226.102381 
L 316.773281 221.950328 
L 314.177272 217.921884 
L 311.267115 214.03327 
L 308.054529 210.300144 
L 304.552448 206.737538 
L 300.774975 203.359797 
L 296.73732 200.180522 
L 292.455742 197.212515 
L 287.947481 194.467727 
L 283.23069 191.957211 
L 278.324362 189.691075 
L 273.248252 187.678444 
L 268.022802 185.927423 
L 262.669051 184.445062 
L 257.208558 183.237331 
L 251.663309 182.309091 
L 246.055634 181.664082 
L 240.408113 181.304899 
L 234.743487 181.23299 
L 229.084564 181.448644 
L 223.454131 181.950993 
L 217.874861 182.738014 
L 212.369218 183.806538 
L 206.959372 185.152262 
L 201.667107 186.769767 
L 196.513733 188.652541 
L 191.52 190.793002 
L 186.706017 193.182531 
L 182.091167 195.811506 
L 177.694034 198.669342 
L 173.532322 201.744532 
L 169.62279 205.024691 
L 165.98118 208.496613 
L 162.622155 212.146316 
L 159.559241 215.959106 
L 156.804771 219.919629 
L 154.369837 224.011937 
L 152.264243 228.219553 
L 150.496467 232.525534 
L 149.073629 236.912541 
L 148.001456 241.362908 
L 147.284267 245.858717 
L 146.924949 250.381864 
L 146.924949 254.914136 
L 147.284267 259.437283 
L 148.001456 263.933092 
L 149.073629 268.383459 
L 150.496467 272.770466 
L 152.264243 277.076447 
L 154.369837 281.284063 
L 156.804771 285.376371 
L 159.559241 289.336894 
L 162.622155 293.149684 
L 165.98118 296.799387 
L 169.62279 300.271309 
L 173.532322 303.551468 
L 177.694034 306.626658 
L 182.091167 309.484494 
L 186.706017 312.113469 
L 191.52 314.502998 
L 196.513733 316.643459 
L 201.667107 318.526233 
L 206.959372 320.143738 
L 212.369218 321.489462 
L 217.874861 322.557986 
L 223.454131 323.345007 
L 229.084564 323.847356 
L 234.743487 324.06301 
L 240.408113 323.991101 
L 246.055634 323.631918 
L 251.663309 322.986909 
L 257.208558 322.058669 
L 262.669051 320.850938 
L 268.022802 319.368577 
L 273.248252 317.617556 
L 278.324362 315.604925 
L 283.23069 313.338789 
L 287.947481 310.828273 
L 292.455742 308.083485 
L 296.73732 305.115478 
L 300.774975 301.936203 
L 304.552448 298.558462 
L 308.054529 294.995856 
L 311.267115 291.26273 
L 314.177272 287.374116 
L 316.773281 283.345672 
L 319.044689 279.193619 
L 320.982349 274.934677 
L 322.57846 270.585994 
L 323.826594 266.165081 
L 324.721726 261.689739 
L 325.26025 257.17799 
L 325.44 252.648 
" clip-path="url(#p9c0bede93d)" style="fill: none; stroke: #219f81; stroke-width: 2; stroke-linecap: square"/>
   </g>
   <g id="line2d_44">
    <path d="M 336.6 252.648 
L 336.397782 247.551761 
L 335.791941 242.476043 
L 334.784918 237.441284 
L 333.380768 232.467757 
L 331.585143 227.575489 
L 329.405275 222.784178 
L 326.849942 218.113119 
L 323.929431 213.58112 
L 320.655505 209.206429 
L 317.041345 205.006662 
L 313.101504 200.99873 
L 308.851847 197.198771 
L 304.309485 193.622087 
L 299.49271 190.283079 
L 294.420916 187.195193 
L 289.114526 184.370862 
L 283.594907 181.821459 
L 277.884284 179.55725 
L 272.005652 177.587351 
L 265.982682 175.919695 
L 259.839627 174.560997 
L 253.601223 173.516727 
L 247.292589 172.791092 
L 240.939128 172.387012 
L 234.566423 172.306114 
L 228.200134 172.548725 
L 221.865898 173.113868 
L 215.589218 173.999266 
L 209.39537 175.201355 
L 203.309294 176.715294 
L 197.355496 178.534988 
L 191.557949 180.653108 
L 185.94 183.061127 
L 180.524269 185.749347 
L 175.332563 188.706945 
L 170.385788 191.92201 
L 165.703862 195.381598 
L 161.305639 199.071777 
L 157.208827 202.977689 
L 153.429924 207.083606 
L 149.984146 211.372994 
L 146.885368 215.828583 
L 144.146067 220.43243 
L 141.777273 225.165997 
L 139.788526 230.010226 
L 138.187832 234.945608 
L 136.981638 239.952272 
L 136.1748 245.010057 
L 135.770567 250.098597 
L 135.770567 255.197403 
L 136.1748 260.285943 
L 136.981638 265.343728 
L 138.187832 270.350392 
L 139.788526 275.285774 
L 141.777273 280.130003 
L 144.146067 284.86357 
L 146.885368 289.467417 
L 149.984146 293.923006 
L 153.429924 298.212394 
L 157.208827 302.318311 
L 161.305639 306.224223 
L 165.703862 309.914402 
L 170.385788 313.37399 
L 175.332563 316.589055 
L 180.524269 319.546653 
L 185.94 322.234873 
L 191.557949 324.642892 
L 197.355496 326.761012 
L 203.309294 328.580706 
L 209.39537 330.094645 
L 215.589218 331.296734 
L 221.865898 332.182132 
L 228.200134 332.747275 
L 234.566423 332.989886 
L 240.939128 332.908988 
L 247.292589 332.504908 
L 253.601223 331.779273 
L 259.839627 330.735003 
L 265.982682 329.376305 
L 272.005652 327.708649 
L 277.884284 325.73875 
L 283.594907 323.474541 
L 289.114526 320.925138 
L 294.420916 318.100807 
L 299.49271 315.012921 
L 304.309485 311.673913 
L 308.851847 308.097229 
L 313.101504 304.29727 
L 317.041345 300.289338 
L 320.655505 296.089571 
L 323.929431 291.71488 
L 326.849942 287.182881 
L 329.405275 282.511822 
L 331.585143 277.720511 
L 333.380768 272.828243 
L 334.784918 267.854716 
L 335.791941 262.819957 
L 336.397782 257.744239 
L 336.6 252.648 
" clip-path="url(#p9c0bede93d)" style="fill: none; stroke: #2f4de9; stroke-width: 2; stroke-linecap: square"/>
   </g>
   <g id="line2d_45">
    <path d="M 347.76 252.648 
L 347.535313 246.985512 
L 346.862157 241.345826 
L 345.743243 235.751649 
L 344.183075 230.225508 
L 342.187937 224.789654 
L 339.765861 219.465976 
L 336.926602 214.27591 
L 333.68159 209.240355 
L 330.043894 204.379588 
L 326.028161 199.71318 
L 321.65056 195.259922 
L 316.928719 191.037746 
L 311.88165 187.063652 
L 306.529678 183.353644 
L 300.894351 179.922659 
L 294.998362 176.784514 
L 288.865452 173.951844 
L 282.520315 171.436055 
L 275.988502 169.247279 
L 269.296314 167.394328 
L 262.470697 165.884663 
L 255.539137 164.724364 
L 248.529543 163.918102 
L 241.470142 163.469124 
L 234.389358 163.379238 
L 227.315705 163.648806 
L 220.277664 164.276742 
L 213.303576 165.260518 
L 206.421522 166.596172 
L 199.659215 168.278327 
L 193.043884 170.300209 
L 186.602166 172.653676 
L 180.36 175.329252 
L 174.342521 178.316163 
L 168.573959 181.602383 
L 163.077542 185.174678 
L 157.875403 189.018664 
L 152.988487 193.118864 
L 148.436475 197.458766 
L 144.237694 202.020895 
L 140.409051 206.786882 
L 136.965964 211.737536 
L 133.922296 216.852922 
L 131.290304 222.112442 
L 129.080584 227.494917 
L 127.302036 232.978676 
L 125.96182 238.541635 
L 125.065333 244.161396 
L 124.616186 249.81533 
L 124.616186 255.48067 
L 125.065333 261.134604 
L 125.96182 266.754365 
L 127.302036 272.317324 
L 129.080584 277.801083 
L 131.290304 283.183558 
L 133.922296 288.443078 
L 136.965964 293.558464 
L 140.409051 298.509118 
L 144.237694 303.275105 
L 148.436475 307.837234 
L 152.988487 312.177136 
L 157.875403 316.277336 
L 163.077542 320.121322 
L 168.573959 323.693617 
L 174.342521 326.979837 
L 180.36 329.966748 
L 186.602166 332.642324 
L 193.043884 334.995791 
L 199.659215 337.017673 
L 206.421522 338.699828 
L 213.303576 340.035482 
L 220.277664 341.019258 
L 227.315705 341.647194 
L 234.389358 341.916762 
L 241.470142 341.826876 
L 248.529543 341.377898 
L 255.539137 340.571636 
L 262.470697 339.411337 
L 269.296314 337.901672 
L 275.988502 336.048721 
L 282.520315 333.859945 
L 288.865452 331.344156 
L 294.998362 328.511486 
L 300.894351 325.373341 
L 306.529678 321.942356 
L 311.88165 318.232348 
L 316.928719 314.258254 
L 321.65056 310.036078 
L 326.028161 305.58282 
L 330.043894 300.916412 
L 333.68159 296.055645 
L 336.926602 291.02009 
L 339.765861 285.830024 
L 342.187937 280.506346 
L 344.183075 275.070492 
L 345.743243 269.544351 
L 346.862157 263.950174 
L 347.535313 258.310488 
L 347.76 252.648 
" clip-path="url(#p9c0bede93d)" style="fill: none; stroke: #ac2b41; stroke-width: 2; stroke-linecap: square"/>
   </g>
   <g id="line2d_46">
    <path d="M 358.92 252.648 
L 358.672844 246.419264 
L 357.932373 240.215608 
L 356.701567 234.062014 
L 354.985383 227.983258 
L 352.79073 222.003819 
L 350.126447 216.147774 
L 347.003262 210.438701 
L 343.43375 204.899591 
L 339.432284 199.552747 
L 335.014977 194.419698 
L 330.199616 189.521114 
L 325.005591 184.87672 
L 319.453815 180.505217 
L 313.566645 176.424208 
L 307.367786 172.650125 
L 300.882198 169.198165 
L 294.135997 166.082228 
L 287.156347 163.314861 
L 279.971353 160.907207 
L 272.609945 158.868961 
L 265.101767 157.208329 
L 257.47705 155.932 
L 249.766497 155.045112 
L 242.001156 154.551236 
L 234.212294 154.452362 
L 226.431275 154.748886 
L 218.68943 155.439616 
L 211.017933 156.521769 
L 203.447675 157.990989 
L 196.009137 159.84136 
L 188.732272 162.065429 
L 181.646383 164.654243 
L 174.78 167.597377 
L 168.160773 170.88298 
L 161.815355 174.497821 
L 155.769296 178.427346 
L 150.046943 182.655731 
L 144.671336 187.16595 
L 139.664122 191.939842 
L 135.045463 196.958185 
L 130.833956 202.200771 
L 127.04656 207.64649 
L 123.698526 213.273414 
L 120.803334 219.058886 
L 118.372643 224.979609 
L 116.416239 231.011743 
L 114.942002 237.130999 
L 113.955867 243.312736 
L 113.461804 249.532063 
L 113.461804 255.763937 
L 113.955867 261.983264 
L 114.942002 268.165001 
L 116.416239 274.284257 
L 118.372643 280.316391 
L 120.803334 286.237114 
L 123.698526 292.022586 
L 127.04656 297.64951 
L 130.833956 303.095229 
L 135.045463 308.337815 
L 139.664122 313.356158 
L 144.671336 318.13005 
L 150.046943 322.640269 
L 155.769296 326.868654 
L 161.815355 330.798179 
L 168.160773 334.41302 
L 174.78 337.698623 
L 181.646383 340.641757 
L 188.732272 343.230571 
L 196.009137 345.45464 
L 200.613513 346.6 
M 271.827942 346.6 
L 272.609945 346.427039 
L 279.971353 344.388793 
L 287.156347 341.981139 
L 294.135997 339.213772 
L 300.882198 336.097835 
L 307.367786 332.645875 
L 313.566645 328.871792 
L 319.453815 324.790783 
L 325.005591 320.41928 
L 330.199616 315.774886 
L 335.014977 310.876302 
L 339.432284 305.743253 
L 343.43375 300.396409 
L 347.003262 294.857299 
L 350.126447 289.148226 
L 352.79073 283.292181 
L 354.985383 277.312742 
L 356.701567 271.233986 
L 357.932373 265.080392 
L 358.672844 258.876736 
L 358.92 252.648 
" clip-path="url(#p9c0bede93d)" style="fill: none; stroke: #21a33a; stroke-width: 2; stroke-linecap: square"/>
   </g>
   <g id="line2d_47">
    <path d="M 370.08 252.648 
L 369.810376 245.853015 
L 369.002589 239.085391 
L 367.659891 232.372379 
L 365.78769 225.741009 
L 363.393524 219.217985 
L 360.487034 212.829571 
L 357.079922 206.601492 
L 353.185909 200.558826 
L 348.820673 194.725905 
L 344.001793 189.126216 
L 338.748672 183.782307 
L 333.082462 178.715695 
L 327.02598 173.946783 
L 320.603613 169.494772 
L 313.841221 165.377591 
L 306.766035 161.611816 
L 299.406542 158.212612 
L 291.792379 155.193667 
L 283.954203 152.567135 
L 275.923577 150.343593 
L 267.732837 148.531996 
L 259.414964 147.139637 
L 251.003452 146.172122 
L 242.53217 145.633349 
L 234.03523 145.525485 
L 225.546846 145.848967 
L 217.101197 146.60249 
L 208.732291 147.783021 
L 200.473827 149.385807 
L 192.359058 151.404392 
L 184.420661 153.83065 
L 176.690599 156.654811 
L 169.2 159.865502 
L 161.979025 163.449796 
L 155.056751 167.393259 
L 148.461051 171.680014 
L 142.218483 176.292797 
L 136.354185 181.213036 
L 130.89177 186.420919 
L 125.853232 191.895474 
L 121.258861 197.614659 
L 117.127157 203.555443 
L 113.474755 209.693906 
L 110.316364 216.00533 
L 107.664701 222.464301 
L 105.530443 229.044811 
L 103.922184 235.720362 
L 102.8464 242.464076 
L 102.307423 249.248796 
L 102.307423 256.047204 
L 102.8464 262.831924 
L 103.922184 269.575638 
L 105.530443 276.251189 
L 107.664701 282.831699 
L 110.316364 289.29067 
L 113.474755 295.602094 
L 117.127157 301.740557 
L 121.258861 307.681341 
L 125.853232 313.400526 
L 130.89177 318.875081 
L 136.354185 324.082964 
L 142.218483 329.003203 
L 148.461051 333.615986 
L 155.056751 337.902741 
L 161.979025 341.846204 
L 169.2 345.430498 
L 171.928469 346.6 
M 300.453107 346.6 
L 306.766035 343.684184 
L 313.841221 339.918409 
L 320.603613 335.801228 
L 327.02598 331.349217 
L 333.082462 326.580305 
L 338.748672 321.513693 
L 344.001793 316.169784 
L 348.820673 310.570095 
L 353.185909 304.737174 
L 357.079922 298.694508 
L 360.487034 292.466429 
L 363.393524 286.078015 
L 365.78769 279.554991 
L 367.659891 272.923621 
L 369.002589 266.210609 
L 369.810376 259.442985 
L 370.08 252.648 
" clip-path="url(#p9c0bede93d)" style="fill: none; stroke: #3bddfb; stroke-width: 2; stroke-linecap: square"/>
   </g>
   <g id="line2d_48">
    <path d="M 381.24 252.648 
L 380.947907 245.286766 
L 380.072804 237.955173 
L 378.618215 230.682744 
L 376.589998 223.49876 
L 373.996318 216.43215 
L 370.84762 209.511369 
L 367.156582 202.764283 
L 362.938068 196.218062 
L 358.209063 189.899064 
L 352.988609 183.832734 
L 347.297728 178.043499 
L 341.159334 172.55467 
L 334.598145 167.388348 
L 327.640581 162.565337 
L 320.314656 158.105057 
L 312.649871 154.025468 
L 304.677088 150.342997 
L 296.42841 147.072472 
L 287.937053 144.227063 
L 279.237208 141.818226 
L 270.363906 139.855662 
L 261.352878 138.347273 
L 252.240406 137.299132 
L 243.063184 136.715461 
L 233.858166 136.598609 
L 224.662416 136.949047 
L 215.512963 137.765364 
L 206.446649 139.044273 
L 197.499979 140.780624 
L 188.70898 142.967425 
L 180.109049 145.595871 
L 171.734816 148.655379 
L 163.62 152.133628 
L 155.797277 156.016612 
L 148.298147 160.288698 
L 141.152805 164.932681 
L 134.390023 169.929864 
L 128.037034 175.260123 
L 122.119417 180.901995 
L 116.661002 186.832764 
L 111.683766 193.028547 
L 107.207753 199.464397 
L 103.250985 206.114398 
L 99.829395 212.951774 
L 96.956759 219.948993 
L 94.644647 227.077878 
L 92.902366 234.309726 
L 91.736933 241.615415 
L 91.153042 248.965529 
L 91.153042 256.330471 
L 91.736933 263.680585 
L 92.902366 270.986274 
L 94.644647 278.218122 
L 96.956759 285.347007 
L 99.829395 292.344226 
L 103.250985 299.181602 
L 107.207753 305.831603 
L 111.683766 312.267453 
L 116.661002 318.463236 
L 122.119417 324.394005 
L 128.037034 330.035877 
L 134.390023 335.366136 
L 141.152805 340.363319 
L 148.298147 345.007302 
L 151.093935 346.6 
M 321.285269 346.6 
L 327.640581 342.730663 
L 334.598145 337.907652 
L 341.159334 332.74133 
L 347.297728 327.252501 
L 352.988609 321.463266 
L 358.209063 315.396936 
L 362.938068 309.077938 
L 367.156582 302.531717 
L 370.84762 295.784631 
L 373.996318 288.86385 
L 376.589998 281.79724 
L 378.618215 274.613256 
L 380.072804 267.340827 
L 380.947907 260.009234 
L 381.24 252.648 
" clip-path="url(#p9c0bede93d)" style="fill: none; stroke: #041813; stroke-width: 2; stroke-linecap: square"/>
   </g>
   <g id="line2d_49">
    <path d="M 392.4 252.648 
L 392.085438 244.720517 
L 391.14302 236.824956 
L 389.57654 228.993108 
L 387.392305 221.256511 
L 384.599111 213.646316 
L 381.208206 206.193166 
L 377.233242 198.927074 
L 372.690227 191.877298 
L 367.597452 185.072223 
L 361.975425 178.539252 
L 355.846784 172.304691 
L 349.236206 166.393644 
L 342.17031 160.829913 
L 334.677549 155.635901 
L 326.788092 150.832523 
L 318.533707 146.439119 
L 309.947633 142.473381 
L 301.064442 138.951278 
L 291.919903 135.886991 
L 282.550839 133.292859 
L 272.994976 131.179328 
L 263.290791 129.554909 
L 253.47736 128.426143 
L 243.594199 127.797574 
L 233.681102 127.671733 
L 223.777987 128.049128 
L 213.92473 128.928238 
L 204.161006 130.305525 
L 194.526131 132.175441 
L 185.058901 134.530458 
L 175.797438 137.361092 
L 166.779032 140.655946 
L 158.04 144.401753 
L 149.615529 148.583429 
L 141.539542 153.184136 
L 133.844559 158.185349 
L 126.561564 163.56693 
L 119.719882 169.307209 
L 113.347064 175.383072 
L 107.468771 181.770053 
L 102.108672 188.442435 
L 97.28835 195.373351 
L 93.027215 202.534891 
L 89.342425 209.898218 
L 86.248818 217.433684 
L 83.75885 225.110946 
L 81.882548 232.89909 
L 80.627467 240.766755 
L 79.99866 248.682262 
L 79.99866 256.613738 
L 80.627467 264.529245 
L 81.882548 272.39691 
L 83.75885 280.185054 
L 86.248818 287.862316 
L 89.342425 295.397782 
L 93.027215 302.761109 
L 97.28835 309.922649 
L 102.108672 316.853565 
L 107.468771 323.525947 
L 113.347064 329.912928 
L 119.719882 335.988791 
L 126.561564 341.72907 
L 133.153486 346.6 
M 339.091977 346.6 
L 342.17031 344.466087 
L 349.236206 338.902356 
L 355.846784 332.991309 
L 361.975425 326.756748 
L 367.597452 320.223777 
L 372.690227 313.418702 
L 377.233242 306.368926 
L 381.208206 299.102834 
L 384.599111 291.649684 
L 387.392305 284.039489 
L 389.57654 276.302892 
L 391.14302 268.471044 
L 392.085438 260.575483 
L 392.4 252.648 
" clip-path="url(#p9c0bede93d)" style="fill: none; stroke: #3c3128; stroke-width: 2; stroke-linecap: square"/>
   </g>
   <g id="patch_3">
    <path d="M 57.6 252.648 
L 57.6 96.408 
" style="fill: none; stroke: #000000; stroke-width: 0.8; stroke-linejoin: miter; stroke-linecap: square"/>
   </g>
   <g id="patch_4">
    <path d="M 414.72 252.648 
L 414.72 96.408 
" style="fill: none; stroke: #000000; stroke-width: 0.8; stroke-linejoin: miter; stroke-linecap: square"/>
   </g>
   <g id="patch_5">
    <path d="M 57.6 252.648 
L 414.72 252.648 
" style="fill: none; stroke: #000000; stroke-width: 0.8; stroke-linejoin: miter; stroke-linecap: square"/>
   </g>
   <g id="patch_6">
    <path d="M 57.6 96.408 
L 414.72 96.408 
" style="fill: none; stroke: #000000; stroke-width: 0.8; stroke-linejoin: miter; stroke-linecap: square"/>
   </g>
   <g id="text_20">
    <!-- ellipse -->
    <g transform="translate(216.840937 90.408) scale(0.12 -0.12)">
     <defs>
      <path id="DejaVuSans-6c" d="M 603 4863 
L 1178 4863 
L 1178 0 
L 603 0 
L 603 4863 
z
" transform="scale(0.015625)"/>
      <path id="DejaVuSans-70" d="M 1159 525 
L 1159 -1331 
L 581 -1331 
L 581 3500 
L 1159 3500 
L 1159 2969 
Q 1341 3281 1617 3432 
Q 1894 3584 2278 3584 
Q 2916 3584 3314 3078 
Q 3713 2572 3713 1747 
Q 3713 922 3314 415 
Q 2916 -91 2278 -91 
Q 1894 -91 1617 61 
Q 1341 213 1159 525 
z
M 3116 1747 
Q 3116 2381 2855 2742 
Q 2594 3103 2138 3103 
Q 1681 3103 1420 2742 
Q 1159 2381 1159 1747 
Q 1159 1113 1420 752 
Q 1681 391 2138 391 
Q 2594 391 2855 752 
Q 3116 1113 3116 1747 
z
" transform="scale(0.015625)"/>
     </defs>
     <use xlink:href="#DejaVuSans-65"/>
     <use xlink:href="#DejaVuSans-6c" x="61.523438"/>
     <use xlink:href="#DejaVuSans-6c" x="89.306641"/>
     <use xlink:href="#DejaVuSans-69" x="117.089844"/>
     <use xlink:href="#DejaVuSans-70" x="144.873047"/>
     <use xlink:href="#DejaVuSans-73" x="208.349609"/>
     <use xlink:href="#DejaVuSans-65" x="260.449219"/>
    </g>
   </g>
  </g>
 </g>
 <defs>
  <clipPath id="p9c0bede93d">
   <rect x="57.6" y="96.408" width="357.12" height="156.24"/>
  </clipPath>
 </defs>
</svg>
